<svg xmlns="http://www.w3.org/2000/svg" width="256" height="256" viewBox="0 0 256 256" fill="none">
  <rect width="256" height="256" rx="56" fill="#FEFFFE"/>
  <g transform="translate(0 38)">
    <path d="M 174.48,33 L 133.06,56.92 L 145.19,63.91 L 174.41,46.49 L 213.18,68.82 V 113.06 L 174.55,135.26 L 124.44,106.36 V 78.96 L 113.61,72.32 L 113.53,112.93 L 174.62,148.61 L 225.11,119.38 V 62.81 L 174.48,33 Z" fill="url(#paint0_linear)"/>
    <path d="M 154.51,92.62 H 166.69 V 111.28 H 154.51 V 92.62 Z" fill="url(#paint1_linear)"/>
    <path d="M 171.65,82.74 H 183.58 V 110.89 H 171.65 V 82.74 Z" fill="url(#paint2_linear)"/>
    <path d="M 188.53,69.41 H 198.81 V 110.89 H 188.53 V 69.41 Z" fill="url(#paint3_linear)"/>
    <path d="M 81.56,33 L 30.18,62.41 V 119.23 L 81.42,148.48 L 121.87,124.71 L 110.48,118.57 L 81.36,135.48 L 42.03,112.71 L 42.14,68.82 L 81.43,46.49 L 130.21,75.72 V 102.89 L 142.47,109.81 L 142.82,68.82 L 81.56,33 Z" fill="url(#paint4_linear)"/>
    <path d="M 67.79,72.54 L 50.02,91.13 L 68.28,109.19 L 72.69,104.11 L 60.62,91.06 L 72.69,77.73 L 67.79,72.54 Z" fill="url(#paint5_linear)"/>
    <path d="M 86.92,72.69 L 82.79,78.09 L 94.72,90.91 L 82.79,104.68 L 87.14,108.83 L 104.76,90.91 L 86.92,72.69 Z" fill="url(#paint6_linear)"/>
  </g>
  <defs>
    <linearGradient id="paint0_linear" x1="169.321" y1="33" x2="169.321" y2="148.61" gradientUnits="userSpaceOnUse">
      <stop stop-color="#F39C12"/>
      <stop offset="1" stop-color="#E94F4F"/>
    </linearGradient>
    <linearGradient id="paint1_linear" x1="160.601" y1="92.6201" x2="160.601" y2="111.278" gradientUnits="userSpaceOnUse">
      <stop stop-color="#7038AA"/>
      <stop offset="1" stop-color="#42337A"/>
    </linearGradient>
    <linearGradient id="paint2_linear" x1="177.617" y1="82.7373" x2="177.617" y2="110.887" gradientUnits="userSpaceOnUse">
      <stop stop-color="#F07B3D"/>
      <stop offset="1" stop-color="#E95A36"/>
    </linearGradient>
    <linearGradient id="paint3_linear" x1="193.67" y1="69.4102" x2="193.67" y2="110.887" gradientUnits="userSpaceOnUse">
      <stop stop-color="#F09123"/>
      <stop offset="1" stop-color="#EB7539"/>
    </linearGradient>
    <linearGradient id="paint4_linear" x1="30.1836" y1="33" x2="107.169" y2="142.969" gradientUnits="userSpaceOnUse">
      <stop stop-color="#6639A6"/>
      <stop offset="1" stop-color="#3B3175"/>
    </linearGradient>
    <linearGradient id="paint5_linear" x1="51.355" y1="72.5352" x2="72.7317" y2="107.913" gradientUnits="userSpaceOnUse">
      <stop stop-color="#6639A6"/>
      <stop offset="1" stop-color="#553487"/>
    </linearGradient>
    <linearGradient id="paint6_linear" x1="84.128" y1="72.6875" x2="105.505" y2="108.065" gradientUnits="userSpaceOnUse">
      <stop stop-color="#6639A6"/>
      <stop offset="1" stop-color="#553487"/>
    </linearGradient>
  </defs>
</svg>
